# xmcd
#
# Track frame offsets:
#	150
#	15565
#	31900
#	48992
#	65977
#	80930
#	96135
#	111807
#	128702
#	144237
#
# Disc length: 2135 seconds
#
# Revision: 0
# Processed by: cddbd v1.5.2PL0 Copyright (c) Steve Scherf et al.
# Submitted via: EasyCDDAExtractor 15.3.0.1
#
DISCID=8508550a
DTITLE=Alvaro Torres - Mas Romantico Que Nadie
DYEAR=1987
DGENRE=Latin
TTITLE0=Pienso En Ti
TTITLE1=No Me Dejes De Amar
TTITLE2=Mas Romantico Que Nadie
TTITLE3=Esa Mujer
TTITLE4=Soy Un Hombre Muerto
TTITLE5=Amor Que Mata
TTITLE6=Tal Para Cual
TTITLE7=Hazme Olvidarla
TTITLE8=Adicto
TTITLE9=Por Lo Mucho Que Te Amo
EXTD=
EXTT0=
EXTT1=
EXTT2=
EXTT3=
EXTT4=
EXTT5=
EXTT6=
EXTT7=
EXTT8=
EXTT9=
PLAYORDER=
